<svg width="700" height="550" viewBox="0 0 700 550" fill="none" xmlns="http://www.w3.org/2000/svg">
<g clip-path="url(#clip0_232_2585)">
<mask id="mask0_232_2585" style="mask-type:alpha" maskUnits="userSpaceOnUse" x="235" y="92" width="413" height="453">
<mask id="path-1-inside-1_232_2585" fill="white">
<path d="M235 312.368V314.805L236.741 316.546L238.481 315.85L238.829 313.761L239.526 312.368H240.918L241.266 314.109L240.222 317.59V319.679L241.963 322.464L247.533 326.642L253.799 329.079L257.281 329.427L259.021 326.99H261.806H266.332L264.243 331.168L261.11 331.864L257.977 334.301L253.799 336.041L250.666 336.39L247.185 334.301V338.13L248.577 339.523L251.71 341.96L254.147 345.441L259.717 351.359L265.288 356.581L269.465 358.67L273.643 359.714L277.124 359.366L283.042 357.277L288.264 354.144L290.701 352.752L293.138 348.574L294.183 345.441L293.138 343.7L292.442 341.96V340.915L293.138 338.826L294.183 336.041H302.19L298.012 338.13L296.968 340.915V344.745L300.797 345.789L298.36 348.574V354.144L300.101 355.189L301.145 357.974L302.19 361.455L300.797 365.633L299.405 370.507V375.032V377.817H301.493L300.797 380.254V383.387L302.19 391.046L303.234 398.009L305.323 405.32L307.76 413.675L308.456 420.29L309.152 424.467L310.545 429.689L313.33 435.259L314.723 437.696L316.115 439.437L317.159 443.615L320.293 448.837L323.426 452.318L324.818 457.54L326.907 464.503L327.952 470.769L329.692 475.991L331.781 481.909L334.566 487.479L337.351 490.264L339.788 493.398L342.225 497.575L343.618 501.753L345.01 505.93L347.795 512.197L349.884 519.159L350.928 526.818L356.499 535.522L359.284 539.699L361.721 541.788L364.506 544.225H367.639L371.816 541.788L375.298 539.003L376.342 536.566L377.038 532.389L378.083 530.648L379.127 529.603H381.216L385.742 528.211L388.875 526.818L387.831 525.078V522.293L392.704 512.197L394.793 513.241H400.712V506.975V503.842V499.316L399.667 495.138V491.657L400.712 488.176L403.845 481.909L405.934 479.82V475.991L406.978 470.769V466.939L404.889 466.591V458.236V450.229L403.845 446.748V442.57V439.437L407.674 433.519L416.726 432.126L417.77 430.385L420.555 426.556L424.385 425.163H426.822L434.132 421.334L432.74 420.29H435.177V417.853V415.068L438.31 411.238L447.71 407.409L452.235 400.794L460.59 396.617L467.205 387.565L477.649 375.729L475.56 377.469V374.684L479.39 372.595L481.478 374.684L493.315 370.855L495.404 367.373L499.233 365.981L497.144 364.24L500.626 360.411L499.233 358.322V352.056L502.715 347.182H505.152L512.81 344.745L517.336 339.175L518.381 346.137L522.21 347.182L523.951 337.086L527.432 340.219L524.995 342.308V346.137H531.61L530.217 341.263L527.432 324.205L528.825 321.42H524.995L526.04 317.938L523.951 316.894V311.672H525.343V307.494L524.995 305.058L519.425 303.665L517.684 301.924L515.247 299.836L515.944 298.443L516.292 296.354L517.336 295.658L518.729 296.702H520.121L520.818 293.917L521.166 291.48L522.21 291.132L527.432 292.177L528.825 291.48L529.173 290.088L516.988 280.34L518.381 276.511L522.21 273.377L520.121 270.94L521.166 269.2L524.995 272.681V274.422H529.173L530.217 272.681L532.654 278.251L536.135 279.296L538.224 278.251L540.313 274.422L541.357 290.436L577.563 293.569L578.608 296.354H575.126V301.924L573.386 304.361H570.601V307.146H566.075L560.157 310.628V318.983L562.594 324.205V321.42H564.334L566.075 326.294L568.164 325.249V321.42L570.601 318.983L571.297 314.457H575.126L580.348 339.175L584.526 341.263L585.919 337.086H588.007V325.249H590.792L591.837 316.894L590.792 313.413V309.583L602.629 312.02L610.984 296.354V292.525L608.199 291.132L609.243 287.303L614.814 283.473V280.34L616.206 278.251L614.814 272.681L616.206 269.2L623.517 263.63L631.524 258.06H638.139L642.316 261.193H644.405L640.575 255.623L642.316 252.141L647.19 248.66V244.482L644.405 242.045L642.316 241.001L638.835 239.608V237.52H635.005L636.398 236.127L635.702 232.298L632.568 229.513V228.468L630.48 226.031H626.998L618.991 229.513L614.814 228.816L610.984 227.772L609.243 226.031L604.021 228.468L604.718 230.905L601.236 233.69L590.792 238.216L584.526 244.482L573.386 252.141H566.075L568.164 255.623L573.386 257.363V265.022L560.157 265.718H552.498L548.32 264.326L544.839 266.763L541.357 267.459L538.224 266.763L534.047 265.022L531.61 265.718L526.04 261.193L528.128 257.363L526.04 255.623L527.432 249.704L526.04 245.179H522.558L517.336 248.66L516.988 249.008L515.247 259.452L516.292 262.933L517.684 265.718L517.336 269.2L515.247 273.029L513.507 270.94L509.677 271.985L505.848 273.029L502.715 271.985L501.67 269.548L498.189 271.985L487.397 268.852L485.308 269.548L481.13 265.022L478.345 267.111L468.598 261.541L468.249 258.756L462.331 255.623L459.894 254.926L457.109 257.363L450.495 255.623L449.102 257.711L446.665 255.623L441.095 254.926V252.489H436.569L430.651 248.312L428.214 249.008L421.6 243.786L416.726 240.305L410.807 237.868L404.193 233.69V229.513L407.326 227.076V218.72L415.681 211.41L412.896 209.669L399.319 199.225H396.186L391.312 194.003L388.527 191.566L386.09 194.003V192.959L385.394 191.566L386.09 188.085L384.349 185.648L385.394 182.863L382.26 179.381L379.824 173.115L384.349 170.33L385.394 174.159L387.831 176.248L391.312 173.115H393.053L395.49 172.071L396.186 169.286L395.49 167.545L393.053 165.456V163.019L389.919 161.975L384.349 155.36L383.305 148.398L385.394 145.961L388.527 144.22L389.919 140.739H399.319L401.06 136.909V133.776L405.585 130.643L406.978 126.465V123.332L405.585 121.939L400.363 120.895L396.882 116.717L388.527 114.281L385.394 116.021L379.824 118.11L376.342 121.939H372.861H366.594V119.154H364.506L357.891 116.021L356.847 114.281L354.758 110.799L351.277 109.755L348.143 106.97L342.921 101.4H340.136L337.699 100.007V96.5257H331.085H329.692V92H325.167V95.4813L322.381 97.9183L318.204 98.9627H314.026H309.152L305.323 100.007L304.627 102.792L303.234 105.925L297.316 109.755V116.021H299.405L305.323 116.717V119.154L307.76 120.895L312.982 124.725L319.248 129.598V132.383L314.723 135.517L312.982 138.302L314.723 139.694L314.026 142.479L317.508 144.22V146.657L318.204 148.398H321.337V149.79L319.248 151.531L318.204 153.968L320.293 157.101L319.248 159.19V161.279L320.293 163.019L322.381 164.76L323.774 167.545L325.167 169.286H327.255V174.159L333.174 175.552L337.699 177.293L335.959 179.381L333.174 181.122L328.3 182.863L324.47 186.692L327.255 191.566L325.167 196.44L327.255 197.484L317.508 206.188V207.232V211.41L314.723 212.802L311.241 214.195L308.456 216.632L307.064 220.461L304.975 225.335L303.582 229.513L301.842 230.905L296.968 233.69L294.531 235.431L290.701 242.394L287.568 247.616L278.169 250.401L273.295 251.793L271.902 250.401L269.465 246.571L264.243 249.356L254.844 261.193L254.147 266.415L258.325 270.244H263.547L262.503 279.992L265.288 283.473H270.858V289.043L277.124 299.836L276.08 300.532L275.383 302.272V303.665H277.124L273.295 306.102H269.465V303.665H268.421L264.243 304.361L262.503 306.102V306.798H261.11H259.021L256.584 305.406H246.488L245.096 306.102L243.703 305.406V310.28H238.481L236.741 311.324L235 312.368Z"/>
</mask>
<path d="M235 312.368V314.805L236.741 316.546L238.481 315.85L238.829 313.761L239.526 312.368H240.918L241.266 314.109L240.222 317.59V319.679L241.963 322.464L247.533 326.642L253.799 329.079L257.281 329.427L259.021 326.99H261.806H266.332L264.243 331.168L261.11 331.864L257.977 334.301L253.799 336.041L250.666 336.39L247.185 334.301V338.13L248.577 339.523L251.71 341.96L254.147 345.441L259.717 351.359L265.288 356.581L269.465 358.67L273.643 359.714L277.124 359.366L283.042 357.277L288.264 354.144L290.701 352.752L293.138 348.574L294.183 345.441L293.138 343.7L292.442 341.96V340.915L293.138 338.826L294.183 336.041H302.19L298.012 338.13L296.968 340.915V344.745L300.797 345.789L298.36 348.574V354.144L300.101 355.189L301.145 357.974L302.19 361.455L300.797 365.633L299.405 370.507V375.032V377.817H301.493L300.797 380.254V383.387L302.19 391.046L303.234 398.009L305.323 405.32L307.76 413.675L308.456 420.29L309.152 424.467L310.545 429.689L313.33 435.259L314.723 437.696L316.115 439.437L317.159 443.615L320.293 448.837L323.426 452.318L324.818 457.54L326.907 464.503L327.952 470.769L329.692 475.991L331.781 481.909L334.566 487.479L337.351 490.264L339.788 493.398L342.225 497.575L343.618 501.753L345.01 505.93L347.795 512.197L349.884 519.159L350.928 526.818L356.499 535.522L359.284 539.699L361.721 541.788L364.506 544.225H367.639L371.816 541.788L375.298 539.003L376.342 536.566L377.038 532.389L378.083 530.648L379.127 529.603H381.216L385.742 528.211L388.875 526.818L387.831 525.078V522.293L392.704 512.197L394.793 513.241H400.712V506.975V503.842V499.316L399.667 495.138V491.657L400.712 488.176L403.845 481.909L405.934 479.82V475.991L406.978 470.769V466.939L404.889 466.591V458.236V450.229L403.845 446.748V442.57V439.437L407.674 433.519L416.726 432.126L417.77 430.385L420.555 426.556L424.385 425.163H426.822L434.132 421.334L432.74 420.29H435.177V417.853V415.068L438.31 411.238L447.71 407.409L452.235 400.794L460.59 396.617L467.205 387.565L477.649 375.729L475.56 377.469V374.684L479.39 372.595L481.478 374.684L493.315 370.855L495.404 367.373L499.233 365.981L497.144 364.24L500.626 360.411L499.233 358.322V352.056L502.715 347.182H505.152L512.81 344.745L517.336 339.175L518.381 346.137L522.21 347.182L523.951 337.086L527.432 340.219L524.995 342.308V346.137H531.61L530.217 341.263L527.432 324.205L528.825 321.42H524.995L526.04 317.938L523.951 316.894V311.672H525.343V307.494L524.995 305.058L519.425 303.665L517.684 301.924L515.247 299.836L515.944 298.443L516.292 296.354L517.336 295.658L518.729 296.702H520.121L520.818 293.917L521.166 291.48L522.21 291.132L527.432 292.177L528.825 291.48L529.173 290.088L516.988 280.34L518.381 276.511L522.21 273.377L520.121 270.94L521.166 269.2L524.995 272.681V274.422H529.173L530.217 272.681L532.654 278.251L536.135 279.296L538.224 278.251L540.313 274.422L541.357 290.436L577.563 293.569L578.608 296.354H575.126V301.924L573.386 304.361H570.601V307.146H566.075L560.157 310.628V318.983L562.594 324.205V321.42H564.334L566.075 326.294L568.164 325.249V321.42L570.601 318.983L571.297 314.457H575.126L580.348 339.175L584.526 341.263L585.919 337.086H588.007V325.249H590.792L591.837 316.894L590.792 313.413V309.583L602.629 312.02L610.984 296.354V292.525L608.199 291.132L609.243 287.303L614.814 283.473V280.34L616.206 278.251L614.814 272.681L616.206 269.2L623.517 263.63L631.524 258.06H638.139L642.316 261.193H644.405L640.575 255.623L642.316 252.141L647.19 248.66V244.482L644.405 242.045L642.316 241.001L638.835 239.608V237.52H635.005L636.398 236.127L635.702 232.298L632.568 229.513V228.468L630.48 226.031H626.998L618.991 229.513L614.814 228.816L610.984 227.772L609.243 226.031L604.021 228.468L604.718 230.905L601.236 233.69L590.792 238.216L584.526 244.482L573.386 252.141H566.075L568.164 255.623L573.386 257.363V265.022L560.157 265.718H552.498L548.32 264.326L544.839 266.763L541.357 267.459L538.224 266.763L534.047 265.022L531.61 265.718L526.04 261.193L528.128 257.363L526.04 255.623L527.432 249.704L526.04 245.179H522.558L517.336 248.66L516.988 249.008L515.247 259.452L516.292 262.933L517.684 265.718L517.336 269.2L515.247 273.029L513.507 270.94L509.677 271.985L505.848 273.029L502.715 271.985L501.67 269.548L498.189 271.985L487.397 268.852L485.308 269.548L481.13 265.022L478.345 267.111L468.598 261.541L468.249 258.756L462.331 255.623L459.894 254.926L457.109 257.363L450.495 255.623L449.102 257.711L446.665 255.623L441.095 254.926V252.489H436.569L430.651 248.312L428.214 249.008L421.6 243.786L416.726 240.305L410.807 237.868L404.193 233.69V229.513L407.326 227.076V218.72L415.681 211.41L412.896 209.669L399.319 199.225H396.186L391.312 194.003L388.527 191.566L386.09 194.003V192.959L385.394 191.566L386.09 188.085L384.349 185.648L385.394 182.863L382.26 179.381L379.824 173.115L384.349 170.33L385.394 174.159L387.831 176.248L391.312 173.115H393.053L395.49 172.071L396.186 169.286L395.49 167.545L393.053 165.456V163.019L389.919 161.975L384.349 155.36L383.305 148.398L385.394 145.961L388.527 144.22L389.919 140.739H399.319L401.06 136.909V133.776L405.585 130.643L406.978 126.465V123.332L405.585 121.939L400.363 120.895L396.882 116.717L388.527 114.281L385.394 116.021L379.824 118.11L376.342 121.939H372.861H366.594V119.154H364.506L357.891 116.021L356.847 114.281L354.758 110.799L351.277 109.755L348.143 106.97L342.921 101.4H340.136L337.699 100.007V96.5257H331.085H329.692V92H325.167V95.4813L322.381 97.9183L318.204 98.9627H314.026H309.152L305.323 100.007L304.627 102.792L303.234 105.925L297.316 109.755V116.021H299.405L305.323 116.717V119.154L307.76 120.895L312.982 124.725L319.248 129.598V132.383L314.723 135.517L312.982 138.302L314.723 139.694L314.026 142.479L317.508 144.22V146.657L318.204 148.398H321.337V149.79L319.248 151.531L318.204 153.968L320.293 157.101L319.248 159.19V161.279L320.293 163.019L322.381 164.76L323.774 167.545L325.167 169.286H327.255V174.159L333.174 175.552L337.699 177.293L335.959 179.381L333.174 181.122L328.3 182.863L324.47 186.692L327.255 191.566L325.167 196.44L327.255 197.484L317.508 206.188V207.232V211.41L314.723 212.802L311.241 214.195L308.456 216.632L307.064 220.461L304.975 225.335L303.582 229.513L301.842 230.905L296.968 233.69L294.531 235.431L290.701 242.394L287.568 247.616L278.169 250.401L273.295 251.793L271.902 250.401L269.465 246.571L264.243 249.356L254.844 261.193L254.147 266.415L258.325 270.244H263.547L262.503 279.992L265.288 283.473H270.858V289.043L277.124 299.836L276.08 300.532L275.383 302.272V303.665H277.124L273.295 306.102H269.465V303.665H268.421L264.243 304.361L262.503 306.102V306.798H261.11H259.021L256.584 305.406H246.488L245.096 306.102L243.703 305.406V310.28H238.481L236.741 311.324L235 312.368Z" fill="#2D5065" stroke="#2F5165" stroke-width="1.7696" mask="url(#path-1-inside-1_232_2585)"/>
</mask>
<g mask="url(#mask0_232_2585)">
<mask id="path-2-inside-2_232_2585" fill="white">
<path d="M235 312.368V314.805L236.741 316.546L238.481 315.85L238.829 313.761L239.526 312.368H240.918L241.266 314.109L240.222 317.59V319.679L241.963 322.464L247.533 326.642L253.799 329.079L257.281 329.427L259.021 326.99H261.806H266.332L264.243 331.167L261.11 331.864L257.977 334.301L253.799 336.041L250.666 336.389L247.185 334.301V338.13L248.577 339.523L251.71 341.96L254.147 345.441L259.717 351.359L265.288 356.581L269.465 358.67L273.643 359.714L277.124 359.366L283.042 357.277L288.264 354.144L290.701 352.752L293.138 348.574L294.183 345.441L293.138 343.7L292.442 341.96V340.915L293.138 338.826L294.183 336.041H302.19L298.012 338.13L296.968 340.915V344.745L300.797 345.789L298.36 348.574V354.144L300.101 355.189L301.145 357.974L302.19 361.455L300.797 365.633L299.405 370.507V375.032V377.817H301.493L300.797 380.254V383.387L302.19 391.046L303.234 398.009L305.323 405.32L307.76 413.675L308.456 420.29L309.152 424.467L310.545 429.689L313.33 435.259L314.723 437.696L316.115 439.437L317.159 443.615L320.293 448.837L323.426 452.318L324.818 457.54L326.907 464.503L327.952 470.769L329.692 475.991L331.781 481.909L334.566 487.479L337.351 490.264L339.788 493.398L342.225 497.575L343.618 501.753L345.01 505.93L347.795 512.197L349.884 519.159L350.928 526.818L356.499 535.522L359.284 539.699L361.721 541.788L364.506 544.225H367.639L371.816 541.788L375.298 539.003L376.342 536.566L377.038 532.388L378.083 530.648L379.127 529.603H381.216L385.742 528.211L388.875 526.818L387.831 525.078V522.293L392.704 512.197L394.793 513.241H400.712V506.975V503.842V499.316L399.667 495.138V491.657L400.712 488.176L403.845 481.909L405.934 479.82V475.991L406.978 470.769V466.939L404.889 466.591V458.236V450.229L403.845 446.748V442.57V439.437L407.674 433.519L416.726 432.126L417.77 430.385L420.555 426.556L424.385 425.163H426.822L434.132 421.334L432.74 420.29H435.177V417.853V415.068L438.31 411.238L447.71 407.409L452.235 400.794L460.59 396.617L467.205 387.565L477.649 375.729L475.56 377.469V374.684L479.39 372.595L481.478 374.684L493.315 370.855L495.404 367.373L499.233 365.981L497.144 364.24L500.626 360.411L499.233 358.322V352.055L502.715 347.182H505.152L512.81 344.745L517.336 339.175L518.381 346.137L522.21 347.182L523.951 337.086L527.432 340.219L524.995 342.308V346.137H531.61L530.217 341.263L527.432 324.205L528.825 321.42H524.995L526.04 317.938L523.951 316.894V311.672H525.343V307.494L524.995 305.058L519.425 303.665L517.684 301.924L515.247 299.836L515.944 298.443L516.292 296.354L517.336 295.658L518.729 296.702H520.121L520.818 293.917L521.166 291.48L522.21 291.132L527.432 292.177L528.825 291.48L529.173 290.088L516.988 280.34L518.381 276.511L522.21 273.377L520.121 270.94L521.166 269.2L524.995 272.681V274.422H529.173L530.217 272.681L532.654 278.251L536.135 279.296L538.224 278.251L540.313 274.422L541.357 290.436L577.563 293.569L578.608 296.354H575.126V301.924L573.386 304.361H570.601V307.146H566.075L560.157 310.628V318.983L562.594 324.205V321.42H564.334L566.075 326.294L568.164 325.249V321.42L570.601 318.983L571.297 314.457H575.126L580.348 339.175L584.526 341.263L585.918 337.086H588.007V325.249H590.792L591.837 316.894L590.792 313.413V309.583L602.629 312.02L610.984 296.354V292.525L608.199 291.132L609.243 287.303L614.814 283.473V280.34L616.206 278.251L614.814 272.681L616.206 269.2L623.517 263.63L631.524 258.06H638.139L642.316 261.193H644.405L640.575 255.623L642.316 252.141L647.19 248.66V244.482L644.405 242.045L642.316 241.001L638.835 239.608V237.52H635.005L636.398 236.127L635.702 232.298L632.568 229.513V228.468L630.48 226.031H626.998L618.991 229.513L614.814 228.816L610.984 227.772L609.243 226.031L604.021 228.468L604.718 230.905L601.236 233.69L590.792 238.216L584.526 244.482L573.386 252.141H566.075L568.164 255.623L573.386 257.363V265.022L560.157 265.718H552.498L548.32 264.326L544.839 266.763L541.357 267.459L538.224 266.763L534.047 265.022L531.61 265.718L526.04 261.193L528.128 257.363L526.04 255.623L527.432 249.704L526.04 245.179H522.558L517.336 248.66L516.988 249.008L515.247 259.452L516.292 262.933L517.684 265.718L517.336 269.2L515.247 273.029L513.507 270.94L509.677 271.985L505.848 273.029L502.715 271.985L501.67 269.548L498.189 271.985L487.397 268.852L485.308 269.548L481.13 265.022L478.345 267.111L468.598 261.541L468.249 258.756L462.331 255.623L459.894 254.926L457.109 257.363L450.495 255.623L449.102 257.711L446.665 255.623L441.095 254.926V252.489H436.569L430.651 248.312L428.214 249.008L421.6 243.786L416.726 240.305L410.807 237.868L404.193 233.69V229.513L407.326 227.076V218.72L415.681 211.41L412.896 209.669L399.319 199.225H396.186L391.312 194.003L388.527 191.566L386.09 194.003V192.959L385.394 191.566L386.09 188.085L384.349 185.648L385.394 182.863L382.26 179.381L379.824 173.115L384.349 170.33L385.394 174.159L387.831 176.248L391.312 173.115H393.053L395.49 172.071L396.186 169.286L395.49 167.545L393.053 165.456V163.019L389.919 161.975L384.349 155.36L383.305 148.398L385.394 145.961L388.527 144.22L389.919 140.739H399.319L401.06 136.909V133.776L405.585 130.643L406.978 126.465V123.332L405.585 121.939L400.363 120.895L396.882 116.717L388.527 114.281L385.394 116.021L379.824 118.11L376.342 121.939H372.861H366.594V119.154H364.506L357.891 116.021L356.847 114.281L354.758 110.799L351.277 109.755L348.143 106.97L342.921 101.4H340.136L337.699 100.007V96.5257H331.085H329.692V92H325.167V95.4813L322.381 97.9183L318.204 98.9627H314.026H309.152L305.323 100.007L304.627 102.792L303.234 105.925L297.316 109.755V116.021H299.405L305.323 116.717V119.154L307.76 120.895L312.982 124.725L319.248 129.598V132.383L314.723 135.517L312.982 138.302L314.723 139.694L314.026 142.479L317.508 144.22V146.657L318.204 148.398H321.337V149.79L319.248 151.531L318.204 153.968L320.293 157.101L319.248 159.19V161.279L320.293 163.019L322.381 164.76L323.774 167.545L325.167 169.286H327.255V174.159L333.174 175.552L337.699 177.293L335.959 179.381L333.174 181.122L328.3 182.863L324.47 186.692L327.255 191.566L325.167 196.44L327.255 197.484L317.508 206.188V207.232V211.41L314.723 212.802L311.241 214.195L308.456 216.632L307.064 220.461L304.975 225.335L303.582 229.513L301.842 230.905L296.968 233.69L294.531 235.431L290.701 242.394L287.568 247.616L278.169 250.401L273.295 251.793L271.902 250.401L269.465 246.571L264.243 249.356L254.844 261.193L254.147 266.415L258.325 270.244H263.547L262.503 279.992L265.288 283.473H270.858V289.043L277.124 299.836L276.08 300.532L275.383 302.272V303.665H277.124L273.295 306.102H269.465V303.665H268.421L264.243 304.361L262.503 306.102V306.798H261.11H259.021L256.584 305.406H246.488L245.096 306.102L243.703 305.406V310.28H238.481L236.741 311.324L235 312.368Z"/>
</mask>
<path d="M235 312.368V314.805L236.741 316.546L238.481 315.85L238.829 313.761L239.526 312.368H240.918L241.266 314.109L240.222 317.59V319.679L241.963 322.464L247.533 326.642L253.799 329.079L257.281 329.427L259.021 326.99H261.806H266.332L264.243 331.167L261.11 331.864L257.977 334.301L253.799 336.041L250.666 336.389L247.185 334.301V338.13L248.577 339.523L251.71 341.96L254.147 345.441L259.717 351.359L265.288 356.581L269.465 358.67L273.643 359.714L277.124 359.366L283.042 357.277L288.264 354.144L290.701 352.752L293.138 348.574L294.183 345.441L293.138 343.7L292.442 341.96V340.915L293.138 338.826L294.183 336.041H302.19L298.012 338.13L296.968 340.915V344.745L300.797 345.789L298.36 348.574V354.144L300.101 355.189L301.145 357.974L302.19 361.455L300.797 365.633L299.405 370.507V375.032V377.817H301.493L300.797 380.254V383.387L302.19 391.046L303.234 398.009L305.323 405.32L307.76 413.675L308.456 420.29L309.152 424.467L310.545 429.689L313.33 435.259L314.723 437.696L316.115 439.437L317.159 443.615L320.293 448.837L323.426 452.318L324.818 457.54L326.907 464.503L327.952 470.769L329.692 475.991L331.781 481.909L334.566 487.479L337.351 490.264L339.788 493.398L342.225 497.575L343.618 501.753L345.01 505.93L347.795 512.197L349.884 519.159L350.928 526.818L356.499 535.522L359.284 539.699L361.721 541.788L364.506 544.225H367.639L371.816 541.788L375.298 539.003L376.342 536.566L377.038 532.388L378.083 530.648L379.127 529.603H381.216L385.742 528.211L388.875 526.818L387.831 525.078V522.293L392.704 512.197L394.793 513.241H400.712V506.975V503.842V499.316L399.667 495.138V491.657L400.712 488.176L403.845 481.909L405.934 479.82V475.991L406.978 470.769V466.939L404.889 466.591V458.236V450.229L403.845 446.748V442.57V439.437L407.674 433.519L416.726 432.126L417.77 430.385L420.555 426.556L424.385 425.163H426.822L434.132 421.334L432.74 420.29H435.177V417.853V415.068L438.31 411.238L447.71 407.409L452.235 400.794L460.59 396.617L467.205 387.565L477.649 375.729L475.56 377.469V374.684L479.39 372.595L481.478 374.684L493.315 370.855L495.404 367.373L499.233 365.981L497.144 364.24L500.626 360.411L499.233 358.322V352.055L502.715 347.182H505.152L512.81 344.745L517.336 339.175L518.381 346.137L522.21 347.182L523.951 337.086L527.432 340.219L524.995 342.308V346.137H531.61L530.217 341.263L527.432 324.205L528.825 321.42H524.995L526.04 317.938L523.951 316.894V311.672H525.343V307.494L524.995 305.058L519.425 303.665L517.684 301.924L515.247 299.836L515.944 298.443L516.292 296.354L517.336 295.658L518.729 296.702H520.121L520.818 293.917L521.166 291.48L522.21 291.132L527.432 292.177L528.825 291.48L529.173 290.088L516.988 280.34L518.381 276.511L522.21 273.377L520.121 270.94L521.166 269.2L524.995 272.681V274.422H529.173L530.217 272.681L532.654 278.251L536.135 279.296L538.224 278.251L540.313 274.422L541.357 290.436L577.563 293.569L578.608 296.354H575.126V301.924L573.386 304.361H570.601V307.146H566.075L560.157 310.628V318.983L562.594 324.205V321.42H564.334L566.075 326.294L568.164 325.249V321.42L570.601 318.983L571.297 314.457H575.126L580.348 339.175L584.526 341.263L585.918 337.086H588.007V325.249H590.792L591.837 316.894L590.792 313.413V309.583L602.629 312.02L610.984 296.354V292.525L608.199 291.132L609.243 287.303L614.814 283.473V280.34L616.206 278.251L614.814 272.681L616.206 269.2L623.517 263.63L631.524 258.06H638.139L642.316 261.193H644.405L640.575 255.623L642.316 252.141L647.19 248.66V244.482L644.405 242.045L642.316 241.001L638.835 239.608V237.52H635.005L636.398 236.127L635.702 232.298L632.568 229.513V228.468L630.48 226.031H626.998L618.991 229.513L614.814 228.816L610.984 227.772L609.243 226.031L604.021 228.468L604.718 230.905L601.236 233.69L590.792 238.216L584.526 244.482L573.386 252.141H566.075L568.164 255.623L573.386 257.363V265.022L560.157 265.718H552.498L548.32 264.326L544.839 266.763L541.357 267.459L538.224 266.763L534.047 265.022L531.61 265.718L526.04 261.193L528.128 257.363L526.04 255.623L527.432 249.704L526.04 245.179H522.558L517.336 248.66L516.988 249.008L515.247 259.452L516.292 262.933L517.684 265.718L517.336 269.2L515.247 273.029L513.507 270.94L509.677 271.985L505.848 273.029L502.715 271.985L501.67 269.548L498.189 271.985L487.397 268.852L485.308 269.548L481.13 265.022L478.345 267.111L468.598 261.541L468.249 258.756L462.331 255.623L459.894 254.926L457.109 257.363L450.495 255.623L449.102 257.711L446.665 255.623L441.095 254.926V252.489H436.569L430.651 248.312L428.214 249.008L421.6 243.786L416.726 240.305L410.807 237.868L404.193 233.69V229.513L407.326 227.076V218.72L415.681 211.41L412.896 209.669L399.319 199.225H396.186L391.312 194.003L388.527 191.566L386.09 194.003V192.959L385.394 191.566L386.09 188.085L384.349 185.648L385.394 182.863L382.26 179.381L379.824 173.115L384.349 170.33L385.394 174.159L387.831 176.248L391.312 173.115H393.053L395.49 172.071L396.186 169.286L395.49 167.545L393.053 165.456V163.019L389.919 161.975L384.349 155.36L383.305 148.398L385.394 145.961L388.527 144.22L389.919 140.739H399.319L401.06 136.909V133.776L405.585 130.643L406.978 126.465V123.332L405.585 121.939L400.363 120.895L396.882 116.717L388.527 114.281L385.394 116.021L379.824 118.11L376.342 121.939H372.861H366.594V119.154H364.506L357.891 116.021L356.847 114.281L354.758 110.799L351.277 109.755L348.143 106.97L342.921 101.4H340.136L337.699 100.007V96.5257H331.085H329.692V92H325.167V95.4813L322.381 97.9183L318.204 98.9627H314.026H309.152L305.323 100.007L304.627 102.792L303.234 105.925L297.316 109.755V116.021H299.405L305.323 116.717V119.154L307.76 120.895L312.982 124.725L319.248 129.598V132.383L314.723 135.517L312.982 138.302L314.723 139.694L314.026 142.479L317.508 144.22V146.657L318.204 148.398H321.337V149.79L319.248 151.531L318.204 153.968L320.293 157.101L319.248 159.19V161.279L320.293 163.019L322.381 164.76L323.774 167.545L325.167 169.286H327.255V174.159L333.174 175.552L337.699 177.293L335.959 179.381L333.174 181.122L328.3 182.863L324.47 186.692L327.255 191.566L325.167 196.44L327.255 197.484L317.508 206.188V207.232V211.41L314.723 212.802L311.241 214.195L308.456 216.632L307.064 220.461L304.975 225.335L303.582 229.513L301.842 230.905L296.968 233.69L294.531 235.431L290.701 242.394L287.568 247.616L278.169 250.401L273.295 251.793L271.902 250.401L269.465 246.571L264.243 249.356L254.844 261.193L254.147 266.415L258.325 270.244H263.547L262.503 279.992L265.288 283.473H270.858V289.043L277.124 299.836L276.08 300.532L275.383 302.272V303.665H277.124L273.295 306.102H269.465V303.665H268.421L264.243 304.361L262.503 306.102V306.798H261.11H259.021L256.584 305.406H246.488L245.096 306.102L243.703 305.406V310.28H238.481L236.741 311.324L235 312.368Z" fill="#2D5065" stroke="#2F5165" stroke-width="1.7696" mask="url(#path-2-inside-2_232_2585)"/>
<path d="M515.943 259.452L518.729 260.844L520.121 261.889L525.691 261.193" stroke="#52809B" stroke-width="0.555556"/>
<path d="M330.389 477.384L332.826 478.08L335.959 479.473L337.352 481.91L338.744 484.346L340.137 486.435L343.618 488.524L347.447 491.657L349.188 493.746V495.835H351.277L353.018 497.576L353.714 499.664H355.803L356.847 501.057V501.753L355.803 503.842L358.588 505.234V510.805V513.242H363.81L363.113 518.812V522.641H364.854L363.81 526.122L362.069 530.648L363.113 534.13L363.81 537.263L363.113 540.048L361.373 541.44" stroke="#52809B" stroke-width="0.555556"/>
<path d="M344.662 489.22H346.403L349.188 490.613L351.625 492.353L353.365 493.746L356.499 494.442L358.587 492.353L359.98 490.613L363.113 491.657H365.55L368.335 489.22L370.076 486.783L368.335 485.391V483.302L369.379 481.561V479.472L368.335 478.08L371.468 476.687L373.557 475.295L375.646 476.687H376.69L377.735 478.08L378.779 478.776L380.868 478.08L381.912 476.687L382.957 474.598L385.045 473.554H387.482H390.616L393.053 472.161L394.445 471.117L395.141 469.725H396.882H398.623L400.711 468.68L401.756 466.939H404.541H406.63" stroke="#52809B" stroke-width="0.555556"/>
<path d="M318.552 446.4L320.989 445.008L322.034 442.223V438.045L320.989 435.26V434.215L323.078 432.475L323.774 430.038L325.167 427.601L322.034 424.12V422.727L323.774 422.031L326.907 420.986L329.344 419.246L331.085 418.201V416.113L335.263 417.157L337.003 416.113H340.833V410.542V408.106L345.707 409.498L349.188 410.542H350.929V406.365L352.669 404.624L356.151 403.58L358.239 400.795L359.632 399.054L361.721 398.01L363.113 395.921L364.506 394.18L366.247 394.876L367.987 395.921L368.683 398.01L369.38 400.795L367.987 403.58L366.247 406.365L367.987 408.106H369.38L367.291 409.498V413.328L366.247 417.551V420.986L363.81 422.727L366.247 424.12L367.987 424.816V427.601L367.291 431.082H364.506L363.113 430.038L361.025 432.475V434.215L361.721 436.304L360.328 438.045L361.025 440.134L363.113 442.223L361.721 444.311L360.328 443.615H358.239L357.195 444.311V448.141L358.239 451.274L361.025 453.363L363.113 455.103L360.328 455.8H358.239V457.889L361.025 458.933L360.328 462.066H361.721L363.113 460.674L364.506 458.933L365.55 462.066L366.247 463.807L369.38 462.066L373.905 460.674L375.646 462.762L378.431 465.199L380.172 467.636L382.261 470.073V472.51L382.957 474.599" stroke="#52809B" stroke-width="0.555556"/>
<path d="M313.33 434.563L314.374 433.867L315.419 433.519L317.159 434.563L317.856 435.956L319.248 435.259L320.989 434.215" stroke="#52809B" stroke-width="0.555556"/>
<path d="M364.854 394.528L368.335 393.484L369.38 391.395L372.861 388.958L372.165 385.825L370.772 384.432L372.165 381.299H376.691L378.083 376.077L379.127 372.248L384.698 373.64L387.831 376.077L390.964 378.166L393.053 377.121L395.49 378.166L400.364 377.121L402.104 379.21V384.432L401.408 388.262L402.801 388.958L405.934 389.654L410.111 392.439L412.548 394.528V398.009H415.333L416.378 400.446V403.58H421.252L423.689 402.535H427.17" stroke="#52809B" stroke-width="0.555556"/>
<path d="M421.948 403.231L422.992 399.75L424.036 396.965L427.866 393.832L431.695 390.002L433.088 387.913V382.691V379.906L430.651 377.817V375.38L431.695 373.64L428.91 372.247V370.507H433.088L434.829 372.247L436.569 373.64H439.006L440.747 371.551L437.614 370.507L436.569 369.462L435.873 363.544V358.67L438.31 356.929L440.051 353.796H443.532H446.665L448.754 350.663L450.495 346.834L452.235 342.308L453.28 339.175L455.368 336.738L458.85 335.693L460.242 332.908L463.027 335.693L467.205 334.649L473.123 333.604V337.782V340.219H475.908L480.086 339.175H482.175L484.264 340.219L486.352 339.175V333.604L487.745 332.908L490.53 333.604L494.011 335.693L498.537 339.175L501.322 342.308L504.455 341.263L505.848 342.308L507.588 344.397V346.137" stroke="#52809B" stroke-width="0.555556"/>
<path d="M367.29 431.082L372.164 432.126H375.994L380.171 428.645L384.697 429.689L387.83 426.556H392.356L391.66 423.771L392.356 421.334L397.578 420.29H400.015H402.8V417.853V416.46L404.193 415.764L406.63 416.46H408.022L411.155 418.897V417.853L409.415 415.068L410.459 412.979L414.985 415.068V412.979L417.074 411.586H419.859L422.644 409.846L424.732 405.668L425.429 403.231L428.562 401.839L431.347 399.402H435.525V395.572L436.569 393.483L439.354 395.572L441.791 394.876H444.924V391.743L446.665 390.002L449.45 388.609V386.173L452.931 384.432L456.064 386.869L457.457 388.609L462.331 389.306L464.42 386.173L465.464 384.432L470.338 383.736" stroke="#52809B" stroke-width="0.555556"/>
<path d="M300.449 368.418L302.19 367.721L303.93 368.418L304.627 365.981L306.715 368.418L308.804 367.721L310.197 365.981V360.759H311.937L313.678 361.803L316.115 360.759L317.159 359.018V356.233L312.634 353.448L314.723 351.359L317.159 349.27L321.685 348.226L317.159 347.53L314.723 346.833L316.115 342.656L318.552 341.263H324.47L326.211 344.745V345.789H330.389L333.174 348.226L336.307 350.315H340.136H345.01L347.447 351.359L349.884 353.448H353.017L355.454 352.403V349.27L357.543 346.833L362.765 345.789L366.943 344.745L368.335 345.789V347.53L366.943 349.27L368.335 350.315L371.468 349.27L373.557 349.618L376.69 348.226L379.475 346.833L380.868 348.226H384.349L387.134 347.53L388.875 345.789L392.704 344.745L395.141 345.789L397.23 348.226L400.363 346.833H403.845L405.933 347.53L408.37 349.618L410.111 351.359L410.807 352.403L409.067 353.448V354.84L410.111 357.277V359.018L409.415 361.107H410.807V364.588V366.329L408.37 368.069L409.415 369.462L409.067 371.899L409.415 373.291L410.807 374.684L414.637 377.469V379.21L413.941 380.602L412.896 381.995L410.807 379.906L409.067 380.602L408.022 382.343L406.978 384.432V386.869L405.933 389.654" stroke="#52809B" stroke-width="0.555556"/>
<path d="M410.807 352.404L411.852 349.967L413.593 344.048L414.985 339.523L417.422 337.782L418.118 333.953L419.859 332.908L422.644 333.953L424.037 332.908L426.474 330.471L427.17 327.686L429.259 325.249L432.044 322.464L432.74 321.42L432.044 318.983L429.955 318.287L427.866 317.59H425.777L424.733 315.85V312.716V311.672H429.955L434.132 312.716H437.614L440.051 312.02L441.791 310.628L443.532 311.324L445.621 311.672L447.71 310.628L449.45 308.539L451.887 310.628L455.02 312.716V314.805L456.761 315.85H459.546V318.287L460.242 321.42V325.249L461.983 326.642H464.072L460.591 330.819L460.242 332.908" stroke="#52809B" stroke-width="0.555556"/>
<path d="M449.45 308.539L450.495 305.754V302.62L451.191 301.576H455.369L459.198 300.183L461.287 302.272H463.028L466.509 305.057L469.294 302.62L472.775 304.361L476.257 302.62H479.042L481.479 301.576L482.523 298.443L484.264 297.398H487.049L490.878 301.576L492.619 303.665L494.708 301.924L497.145 300.88L499.233 301.576L501.322 299.139L503.759 294.265L505.5 291.48L507.937 290.784L510.026 289.391L512.462 291.48L513.507 294.265V296.702L512.462 302.62L510.026 306.45L507.24 310.279L504.804 309.583V312.368H499.93H498.189V314.805L494.708 315.501H493.315L491.574 318.983L489.486 317.59L487.745 316.198L485.308 318.983L484.264 321.42H487.049L489.486 323.508L491.574 324.205L493.315 325.597L494.011 326.642L493.315 329.427L496.1 330.819L498.189 332.212L499.233 334.301L499.93 335.693L497.145 338.13" stroke="#52809B" stroke-width="0.555556"/>
<path d="M513.507 294.266V291.133L512.114 288.348L513.507 286.607L514.551 284.866V282.777L513.158 281.385V278.6V277.555L516.292 275.467L517.684 274.074L518.729 271.985M518.729 271.985L518.032 269.896L517.684 269.2M518.729 271.985L519.773 270.941" stroke="#52809B" stroke-width="0.555556"/>
<path d="M541.358 267.807V270.592L540.661 273.378" stroke="#52809B" stroke-width="0.555556"/>
<path d="M541.357 283.125L543.446 284.866L542.402 283.125L543.098 281.733L544.839 280.34L548.32 278.948L551.105 280.34L553.194 279.992L555.631 279.296H557.023L560.157 282.429L561.549 283.125L562.593 282.429L564.334 281.037L565.727 279.296L567.467 277.555L569.904 278.251L570.949 278.948L574.778 277.903L575.474 278.251V280.34L574.778 281.733L573.734 283.473L576.171 283.125H577.563L580 285.91L581.393 287.651L582.437 289.392L581.393 290.784L578.956 292.873L577.911 293.569" stroke="#52809B" stroke-width="0.555556"/>
<path d="M575.126 314.109V311.672L575.474 309.235L575.822 308.539L576.171 306.102L573.734 304.361" stroke="#52809B" stroke-width="0.555556"/>
<path d="M576.171 306.45H577.563L578.956 307.146L580 306.102L581.393 303.665L581.741 302.969L582.437 302.272L583.133 304.013H584.874H585.57L585.919 306.45V308.191H587.311L588.355 308.887L590.444 309.235" stroke="#52809B" stroke-width="0.555556"/>
<path d="M585.57 304.013L587.659 299.487L588.703 296.006L590.096 294.265L591.837 292.177V291.132H593.577L594.622 290.436L596.711 286.955L597.059 286.258L597.755 285.91H599.844L601.933 286.258H604.021L605.762 285.214L607.155 284.866H608.547V285.91L608.895 286.955" stroke="#52809B" stroke-width="0.555556"/>
<path d="M591.837 291.132V289.74V288.347L591.14 287.303V285.562L591.837 284.518L593.577 282.777L595.318 281.384L596.362 279.644H597.755H598.799V277.903L600.54 275.814L601.236 273.377L602.977 270.94L608.199 267.807L611.68 265.022L615.162 263.63L618.295 261.193L620.384 259.8L622.472 258.408H624.909L626.65 257.363H627.694L626.65 256.319L624.909 254.23L625.606 251.793L626.65 249.356L627.694 248.312L625.257 247.964H622.472L620.384 248.312L617.25 249.704L615.858 250.749L613.769 251.793L610.984 252.489L608.199 253.534H605.414L603.325 253.882L601.236 256.319V257.363L599.496 258.756H597.755V261.193L596.362 262.585L592.881 263.63L589.748 264.674H588.355L586.266 263.63L583.481 262.933L581.044 262.585L578.956 262.933L576.519 264.326L575.126 264.674L573.734 265.022" stroke="#52809B" stroke-width="0.555556"/>
<path d="M603.325 254.23L605.066 252.838L608.895 251.793L612.725 250.401L616.554 249.008L618.295 246.571L621.776 244.134L624.561 242.394H627.695L632.22 244.83H634.657L635.702 245.875L639.531 248.312L642.664 249.704L643.361 251.097" stroke="#52809B" stroke-width="0.555556"/>
<path d="M319.597 341.263L318.552 338.826L319.597 335.345L320.293 334.301L319.597 332.212L322.034 331.168L323.426 329.775L324.122 325.946L325.515 323.16L327.256 322.116L325.515 320.375L328.996 317.242L331.433 315.502V310.976V308.539L328.996 306.45V304.361V301.576V300.184L331.433 298.443L333.522 297.399H337.351H339.788L342.573 298.443L344.314 300.184L345.01 302.969L342.573 303.665V305.406V307.843L340.485 309.583L339.788 310.976L341.181 313.413L342.573 310.976H344.314L347.795 309.583L348.492 305.406L350.232 306.45H354.41H357.195L358.936 307.843L358.239 304.361V301.576H360.676L358.936 298.443L357.195 297.399L358.239 294.614L358.936 293.917H362.417L365.202 292.525V290.088V287.999L362.417 289.043L360.676 290.784L357.195 290.088L354.41 287.999L353.017 284.866V283.473L358.936 278.251L367.291 273.029L374.602 267.459L377.735 265.37L380.52 266.067H384.349L387.135 267.459L389.223 271.637V274.77L387.135 278.948L385.742 281.384V284.866L385.046 286.606L387.135 287.303L388.179 288.347V290.436L387.135 291.48L386.438 290.088L385.046 289.74L383.653 288.347L382.957 286.606L381.913 284.866L380.52 285.214L378.779 287.303L378.431 287.999L380.52 290.088L381.913 291.132L379.824 292.873L378.083 294.614L377.387 296.006V299.139L378.083 301.576L378.779 304.361L379.127 305.406L380.868 304.361L382.261 304.709L384.698 306.45H386.438L387.483 304.709L388.179 301.924L386.786 300.532L384.698 299.836V295.658L382.957 293.917L387.831 293.569L389.92 292.525H391.312L392.705 290.088L393.053 289.043L394.793 290.784L394.097 292.525L396.882 292.873H399.319L400.015 291.132L401.756 289.74L404.889 288.347H405.934L407.674 289.74L408.371 292.177L408.023 293.917L409.763 292.873H412.548L414.289 291.48L413.941 293.569V294.962L417.422 296.006L418.467 295.31L420.207 292.177L421.6 291.48H424.733L426.125 292.525L428.214 295.31L431.347 296.702L432.044 297.399L433.436 298.443L434.481 299.836H435.177L437.266 300.184H440.051L441.443 300.532V301.924V304.013L440.747 305.754L440.051 307.146V308.191L440.747 309.931L441.791 310.628" stroke="#52809B" stroke-width="0.555556"/>
<path d="M314.026 213.499H315.419L316.115 214.543V215.239H318.204L321.685 215.587H324.818V216.98L325.863 218.372V220.461L326.559 223.594V225.335H327.952H331.781L334.566 226.379H336.655L337.699 227.772L339.092 231.253V232.994L340.484 236.475L342.921 240.305L345.358 242.742L346.403 244.134L345.358 245.875V247.616L347.099 249.704H348.143L348.84 248.66L350.58 246.571L350.928 244.482L353.365 246.571H355.106L357.891 244.482V248.66V250.401L359.98 251.445H362.069L364.506 250.401V252.489V254.926L366.246 257.015L368.335 258.408L369.379 259.104V260.845L368.335 261.889L370.424 262.585L366.943 266.067L370.424 264.326H373.209L376.69 263.282H377.387L377.735 265.37" stroke="#52809B" stroke-width="0.555556"/>
<path d="M277.472 299.488H279.561H283.739H287.22H290.005H292.79L294.879 300.88L297.316 302.621L299.405 304.013H301.493L303.93 303.665L304.975 302.621L305.671 304.361L306.715 305.058L305.671 307.146L306.715 308.539L308.804 309.583V312.368L310.893 315.502L314.723 318.287L319.596 321.768L322.382 324.553L324.122 325.946" stroke="#52809B" stroke-width="0.555556"/>
<path d="M451.191 301.576L451.887 300.88L451.191 298.443L450.147 295.31V293.569L449.799 291.828L451.191 290.436L453.976 288.695L456.413 287.999L458.502 286.258L459.546 284.17H460.939H463.028L463.376 283.821L464.072 283.473L466.161 284.17L467.205 283.473V282.081L465.813 280.688L463.376 279.644L461.983 278.599L460.939 277.207L458.85 275.814L459.546 274.074L460.243 272.681L458.502 271.637V270.244L459.546 268.852H461.287H464.768L461.983 266.763V265.022L460.939 264.674L458.85 263.282V260.496L457.806 259.452L457.109 257.711" stroke="#52809B" stroke-width="0.555556"/>
<path d="M324.818 215.936H326.559L329.344 216.284L331.085 216.632L332.477 217.328L334.914 218.721V220.462L335.61 221.854L336.655 219.765L339.092 218.373L341.529 218.721L345.01 219.069L347.447 218.721L349.536 216.98L349.187 215.24V213.151V212.106L350.232 211.41H351.624L352.669 212.106L354.061 213.151V210.714L354.758 208.973L356.846 207.581L357.891 206.884V205.492L357.543 204.099L355.802 202.707L357.543 202.01V200.966L359.283 201.314L360.676 202.359L361.72 203.403L362.068 205.492L362.417 206.884L363.809 207.581H366.594L368.683 209.321L367.639 210.018L366.246 212.106L364.853 214.543L363.809 216.284L362.417 217.676L362.068 219.765V223.247V228.12L363.461 230.906L362.417 233.342L363.461 234.735L364.157 236.476L364.853 238.216V239.261L366.594 239.957L367.29 241.698V245.179V247.616L366.594 249.008L365.55 249.705L364.505 250.401" stroke="#52809B" stroke-width="0.555556"/>
<path d="M338.048 176.944L339.788 176.596L341.181 175.552L343.27 173.811L344.662 174.856V175.552L343.966 176.944L342.574 178.337L341.529 179.033L340.833 180.774L343.27 181.818L345.01 182.863L345.359 184.952L346.403 187.737L347.099 190.522L348.492 192.61H350.232L351.973 191.914L352.321 193.307L354.41 195.744L355.106 197.136L356.151 199.225L357.195 200.269L357.891 200.966" stroke="#52809B" stroke-width="0.555556"/>
<path d="M343.27 173.812L345.01 172.071V170.678L344.314 168.938L343.27 166.501L345.358 166.849L347.099 165.805L349.188 164.064L351.277 162.323L353.365 161.975H355.454L357.195 161.279L358.239 163.368L359.98 165.108L363.113 167.197L365.202 168.59L367.639 166.501L369.728 165.805L370.076 165.456L371.468 167.893L372.861 169.634L373.905 171.375H375.298L376.69 170.678L379.475 169.634L379.127 171.375L378.083 172.419V173.812L379.475 173.115" stroke="#52809B" stroke-width="0.555556"/>
<path d="M369.031 209.322L370.772 208.277L371.12 206.885V205.144L370.772 202.359L371.12 199.226L372.164 197.137L373.905 195.396L376.69 195.048L378.779 193.656H380.519L383.653 195.048L385.045 195.744L385.741 194.7" stroke="#52809B" stroke-width="0.555556"/>
<path d="M362.417 233.342H361.372L360.328 233.69L358.935 234.386L358.587 235.083V236.475L358.239 237.868L358.587 238.912L359.98 239.957L361.024 241.001H362.765L363.809 240.305L364.854 239.26" stroke="#52809B" stroke-width="0.555556"/>
<path d="M368.335 208.973H370.076L370.772 209.321L372.165 210.365L373.209 211.758L372.165 212.802L371.817 214.195L370.772 216.284L370.076 216.632V218.372L371.817 219.957L372.861 219.765L374.253 221.506H375.994L377.387 219.957L379.127 218.372L381.564 220.113L383.653 221.158L386.438 222.898V223.594V224.639L385.394 226.031V226.728L386.438 227.772L390.616 230.557L392.356 231.95L394.445 234.038L396.186 234.387H398.275L399.319 234.735L399.667 235.431L401.756 235.779L403.149 234.735L403.845 234.038" stroke="#52809B" stroke-width="0.555556"/>
</g>
<path d="M270.411 397.248L267.774 390.298H267.731C267.745 390.444 267.757 390.623 267.768 390.835C267.779 391.046 267.788 391.277 267.795 391.528C267.802 391.775 267.806 392.027 267.806 392.285V397.248H266.957V389.395H268.311L270.797 395.927H270.835L273.359 389.395H274.702V397.248H273.8V392.22C273.8 391.988 273.803 391.755 273.811 391.522C273.818 391.286 273.827 391.064 273.837 390.856C273.848 390.645 273.859 390.462 273.87 390.308H273.827L271.157 397.248H270.411ZM281.577 391.361V397.248H280.847L280.718 396.421H280.669C280.548 396.625 280.39 396.797 280.197 396.936C280.003 397.076 279.785 397.18 279.542 397.248C279.302 397.319 279.046 397.355 278.774 397.355C278.308 397.355 277.918 397.28 277.603 397.13C277.287 396.979 277.049 396.747 276.888 396.431C276.731 396.116 276.652 395.712 276.652 395.218V391.361H277.554V395.153C277.554 395.644 277.665 396.011 277.887 396.254C278.109 396.494 278.448 396.614 278.902 396.614C279.339 396.614 279.687 396.532 279.944 396.367C280.206 396.202 280.394 395.961 280.508 395.642C280.623 395.32 280.68 394.926 280.68 394.46V391.361H281.577ZM289.854 391.254C290.502 391.254 290.991 391.424 291.32 391.764C291.65 392.101 291.815 392.643 291.815 393.391V397.248H290.934V393.434C290.934 392.958 290.83 392.602 290.622 392.365C290.418 392.126 290.114 392.006 289.709 392.006C289.14 392.006 288.726 392.17 288.468 392.5C288.211 392.829 288.082 393.314 288.082 393.955V397.248H287.195V393.434C287.195 393.116 287.149 392.851 287.056 392.639C286.966 392.428 286.83 392.271 286.648 392.167C286.468 392.059 286.241 392.006 285.965 392.006C285.575 392.006 285.262 392.086 285.025 392.247C284.789 392.408 284.617 392.648 284.51 392.967C284.406 393.282 284.354 393.671 284.354 394.133V397.248H283.462V391.361H284.182L284.316 392.194H284.365C284.483 391.99 284.632 391.818 284.811 391.678C284.99 391.538 285.19 391.433 285.412 391.361C285.634 391.289 285.871 391.254 286.121 391.254C286.569 391.254 286.943 391.338 287.244 391.506C287.548 391.671 287.768 391.923 287.904 392.263H287.953C288.146 391.923 288.411 391.671 288.748 391.506C289.084 391.338 289.453 391.254 289.854 391.254ZM294.538 388.89V390.98C294.538 391.22 294.53 391.452 294.516 391.678C294.505 391.904 294.496 392.079 294.489 392.204H294.538C294.699 391.939 294.932 391.716 295.236 391.533C295.54 391.35 295.929 391.259 296.401 391.259C297.139 391.259 297.726 391.515 298.163 392.027C298.604 392.536 298.824 393.293 298.824 394.299C298.824 394.962 298.724 395.52 298.523 395.975C298.322 396.43 298.04 396.773 297.674 397.006C297.309 397.239 296.878 397.355 296.38 397.355C295.914 397.355 295.531 397.269 295.231 397.097C294.933 396.922 294.704 396.709 294.543 396.458H294.473L294.291 397.248H293.646V388.89H294.538ZM296.256 392.006C295.83 392.006 295.492 392.09 295.241 392.258C294.991 392.423 294.81 392.673 294.699 393.01C294.591 393.343 294.538 393.766 294.538 394.278V394.326C294.538 395.067 294.661 395.635 294.908 396.029C295.155 396.419 295.605 396.614 296.256 396.614C296.804 396.614 297.214 396.413 297.486 396.012C297.762 395.611 297.9 395.038 297.9 394.294C297.9 393.535 297.764 392.963 297.492 392.58C297.223 392.197 296.811 392.006 296.256 392.006ZM302.584 391.264C303.285 391.264 303.806 391.422 304.147 391.737C304.487 392.052 304.657 392.555 304.657 393.246V397.248H304.007L303.835 396.378H303.792C303.627 396.593 303.455 396.773 303.276 396.92C303.097 397.063 302.89 397.173 302.653 397.248C302.421 397.319 302.134 397.355 301.794 397.355C301.436 397.355 301.117 397.293 300.838 397.167C300.562 397.042 300.344 396.852 300.183 396.598C300.025 396.344 299.946 396.021 299.946 395.631C299.946 395.044 300.179 394.593 300.645 394.278C301.11 393.962 301.819 393.791 302.772 393.762L303.787 393.719V393.359C303.787 392.851 303.677 392.494 303.459 392.29C303.241 392.086 302.933 391.984 302.535 391.984C302.227 391.984 301.934 392.029 301.654 392.118C301.375 392.208 301.11 392.314 300.859 392.435L300.586 391.759C300.85 391.622 301.155 391.506 301.499 391.409C301.842 391.313 302.204 391.264 302.584 391.264ZM303.776 394.347L302.879 394.385C302.145 394.414 301.628 394.534 301.327 394.745C301.026 394.956 300.876 395.255 300.876 395.642C300.876 395.978 300.978 396.227 301.182 396.388C301.386 396.55 301.656 396.63 301.993 396.63C302.516 396.63 302.943 396.485 303.276 396.195C303.609 395.905 303.776 395.47 303.776 394.89V394.347ZM307.385 391.361V397.248H306.494V391.361H307.385ZM306.95 389.159C307.097 389.159 307.222 389.207 307.326 389.304C307.434 389.397 307.487 389.544 307.487 389.744C307.487 389.941 307.434 390.088 307.326 390.185C307.222 390.281 307.097 390.33 306.95 390.33C306.796 390.33 306.667 390.281 306.564 390.185C306.463 390.088 306.413 389.941 306.413 389.744C306.413 389.544 306.463 389.397 306.564 389.304C306.667 389.207 306.796 389.159 306.95 389.159Z" fill="white"/>
<rect x="312.128" y="390.852" width="3.792" height="3.79199" fill="white"/>
<rect x="518.136" y="330.18" width="3.792" height="3.79199" fill="white"/>
<path d="M533.396 336.576H532.316L529.485 332.758L528.647 333.51V336.576H527.734V328.724H528.647V332.639C528.852 332.407 529.061 332.176 529.276 331.947C529.491 331.714 529.704 331.479 529.915 331.243L532.208 328.724H533.277L530.151 332.129L533.396 336.576ZM539.411 333.622C539.411 334.106 539.348 334.537 539.223 334.917C539.098 335.296 538.917 335.617 538.681 335.878C538.444 336.14 538.158 336.34 537.821 336.48C537.488 336.616 537.111 336.684 536.688 336.684C536.294 336.684 535.932 336.616 535.603 336.48C535.277 336.34 534.994 336.14 534.754 335.878C534.518 335.617 534.334 335.296 534.201 334.917C534.072 334.537 534.008 334.106 534.008 333.622C534.008 332.978 534.117 332.43 534.335 331.979C534.554 331.524 534.865 331.178 535.27 330.942C535.678 330.702 536.163 330.582 536.726 330.582C537.263 330.582 537.732 330.702 538.133 330.942C538.537 331.182 538.851 331.529 539.073 331.984C539.298 332.435 539.411 332.981 539.411 333.622ZM534.932 333.622C534.932 334.095 534.994 334.505 535.12 334.852C535.245 335.2 535.438 335.468 535.7 335.658C535.961 335.848 536.298 335.943 536.709 335.943C537.118 335.943 537.452 335.848 537.714 335.658C537.979 335.468 538.174 335.2 538.299 334.852C538.425 334.505 538.487 334.095 538.487 333.622C538.487 333.153 538.425 332.749 538.299 332.408C538.174 332.065 537.981 331.8 537.719 331.614C537.458 331.427 537.119 331.334 536.704 331.334C536.092 331.334 535.642 331.537 535.356 331.941C535.073 332.346 534.932 332.906 534.932 333.622ZM541.85 336.576H540.953V328.219H541.85V336.576ZM544.621 328.219V332.559C544.621 332.702 544.616 332.878 544.605 333.085C544.594 333.289 544.585 333.47 544.578 333.628H544.616C544.691 333.535 544.8 333.397 544.943 333.214C545.09 333.031 545.214 332.885 545.314 332.774L547.269 330.69H548.316L545.948 333.203L548.488 336.576H547.414L545.335 333.789L544.621 334.444V336.576H543.735V328.219H544.621ZM551.716 330.593C552.418 330.593 552.939 330.751 553.279 331.066C553.619 331.381 553.79 331.884 553.79 332.575V336.576H553.14L552.968 335.706H552.925C552.76 335.921 552.588 336.102 552.409 336.249C552.23 336.392 552.022 336.501 551.786 336.576C551.553 336.648 551.267 336.684 550.927 336.684C550.569 336.684 550.25 336.621 549.971 336.496C549.695 336.371 549.477 336.181 549.315 335.927C549.158 335.672 549.079 335.35 549.079 334.96C549.079 334.372 549.312 333.921 549.777 333.606C550.243 333.291 550.952 333.119 551.904 333.091L552.919 333.048V332.688C552.919 332.179 552.81 331.823 552.592 331.619C552.373 331.415 552.065 331.313 551.668 331.313C551.36 331.313 551.066 331.358 550.787 331.447C550.508 331.537 550.243 331.642 549.992 331.764L549.718 331.087C549.983 330.951 550.288 330.835 550.631 330.738C550.975 330.641 551.337 330.593 551.716 330.593ZM552.909 333.676L552.012 333.714C551.278 333.742 550.76 333.862 550.459 334.073C550.159 334.285 550.008 334.584 550.008 334.97C550.008 335.307 550.11 335.556 550.314 335.717C550.519 335.878 550.789 335.959 551.125 335.959C551.648 335.959 552.076 335.814 552.409 335.524C552.742 335.234 552.909 334.799 552.909 334.219V333.676ZM557.528 335.953C557.675 335.953 557.825 335.941 557.979 335.916C558.133 335.891 558.258 335.86 558.355 335.824V336.517C558.251 336.564 558.106 336.603 557.92 336.635C557.737 336.668 557.558 336.684 557.383 336.684C557.071 336.684 556.788 336.63 556.534 336.523C556.28 336.412 556.076 336.226 555.922 335.964C555.771 335.703 555.696 335.341 555.696 334.879V331.388H554.858V330.953L555.702 330.604L556.056 329.325H556.593V330.69H558.317V331.388H556.593V334.852C556.593 335.221 556.677 335.497 556.846 335.679C557.018 335.862 557.245 335.953 557.528 335.953ZM561.75 330.593C562.451 330.593 562.972 330.751 563.312 331.066C563.653 331.381 563.823 331.884 563.823 332.575V336.576H563.173L563.001 335.706H562.958C562.793 335.921 562.621 336.102 562.442 336.249C562.263 336.392 562.056 336.501 561.819 336.576C561.587 336.648 561.3 336.684 560.96 336.684C560.602 336.684 560.283 336.621 560.004 336.496C559.728 336.371 559.51 336.181 559.349 335.927C559.191 335.672 559.112 335.35 559.112 334.96C559.112 334.372 559.345 333.921 559.811 333.606C560.276 333.291 560.985 333.119 561.937 333.091L562.953 333.048V332.688C562.953 332.179 562.843 331.823 562.625 331.619C562.407 331.415 562.099 331.313 561.701 331.313C561.393 331.313 561.1 331.358 560.82 331.447C560.541 331.537 560.276 331.642 560.025 331.764L559.751 331.087C560.016 330.951 560.321 330.835 560.665 330.738C561.008 330.641 561.37 330.593 561.75 330.593ZM562.942 333.676L562.045 333.714C561.311 333.742 560.793 333.862 560.493 334.073C560.192 334.285 560.042 334.584 560.042 334.97C560.042 335.307 560.144 335.556 560.348 335.717C560.552 335.878 560.822 335.959 561.159 335.959C561.681 335.959 562.109 335.814 562.442 335.524C562.775 335.234 562.942 334.799 562.942 334.219V333.676Z" fill="white"/>
<rect x="401.848" y="476.804" width="3.792" height="3.79199" fill="white"/>
<path d="M414.625 476.04C414.191 476.04 413.801 476.115 413.454 476.266C413.11 476.412 412.816 476.627 412.573 476.91C412.333 477.189 412.149 477.528 412.02 477.925C411.891 478.323 411.826 478.77 411.826 479.268C411.826 479.927 411.928 480.5 412.133 480.987C412.34 481.47 412.648 481.844 413.056 482.109C413.468 482.374 413.982 482.507 414.598 482.507C414.949 482.507 415.278 482.478 415.586 482.421C415.898 482.36 416.2 482.285 416.494 482.195V482.99C416.207 483.098 415.907 483.176 415.592 483.227C415.276 483.28 414.902 483.307 414.469 483.307C413.67 483.307 413.003 483.142 412.466 482.813C411.932 482.48 411.531 482.011 411.262 481.406C410.997 480.801 410.865 480.086 410.865 479.263C410.865 478.668 410.947 478.126 411.112 477.635C411.28 477.141 411.524 476.715 411.843 476.357C412.165 475.999 412.559 475.723 413.024 475.53C413.493 475.333 414.03 475.234 414.636 475.234C415.033 475.234 415.416 475.274 415.785 475.353C416.154 475.431 416.487 475.544 416.784 475.691L416.419 476.464C416.168 476.35 415.892 476.251 415.592 476.169C415.294 476.083 414.972 476.04 414.625 476.04ZM418.954 474.842V477.34C418.954 477.483 418.95 477.628 418.943 477.775C418.936 477.918 418.923 478.051 418.906 478.172H418.965C419.086 477.965 419.24 477.791 419.427 477.651C419.616 477.508 419.831 477.401 420.071 477.329C420.311 477.254 420.565 477.216 420.834 477.216C421.306 477.216 421.7 477.292 422.015 477.442C422.334 477.592 422.572 477.825 422.73 478.14C422.891 478.455 422.971 478.863 422.971 479.365V483.2H422.091V479.424C422.091 478.933 421.978 478.566 421.752 478.323C421.53 478.079 421.188 477.958 420.726 477.958C420.289 477.958 419.94 478.042 419.679 478.21C419.421 478.375 419.235 478.618 419.12 478.94C419.009 479.263 418.954 479.657 418.954 480.122V483.2H418.062V474.842H418.954ZM427.075 477.206C427.576 477.206 428.006 477.317 428.364 477.539C428.722 477.761 428.996 478.072 429.186 478.473C429.376 478.871 429.47 479.336 429.47 479.87V480.423H425.405C425.415 481.114 425.587 481.64 425.92 482.002C426.253 482.364 426.722 482.544 427.327 482.544C427.7 482.544 428.029 482.51 428.316 482.442C428.602 482.374 428.899 482.274 429.207 482.142V482.926C428.91 483.058 428.615 483.155 428.321 483.216C428.031 483.277 427.687 483.307 427.29 483.307C426.724 483.307 426.23 483.193 425.807 482.963C425.388 482.731 425.063 482.39 424.83 481.943C424.597 481.495 424.481 480.947 424.481 480.299C424.481 479.666 424.586 479.118 424.798 478.656C425.012 478.19 425.313 477.832 425.7 477.582C426.09 477.331 426.549 477.206 427.075 477.206ZM427.064 477.936C426.588 477.936 426.208 478.092 425.926 478.403C425.643 478.715 425.474 479.15 425.421 479.708H428.536C428.532 479.358 428.477 479.05 428.369 478.785C428.266 478.516 428.106 478.308 427.891 478.162C427.677 478.011 427.401 477.936 427.064 477.936ZM433.773 477.206C434.471 477.206 434.999 477.377 435.357 477.721C435.715 478.061 435.894 478.609 435.894 479.365V483.2H435.013V479.424C435.013 478.933 434.901 478.566 434.675 478.323C434.453 478.079 434.111 477.958 433.649 477.958C432.997 477.958 432.539 478.142 432.274 478.511C432.009 478.88 431.877 479.415 431.877 480.117V483.2H430.985V477.313H431.705L431.839 478.162H431.887C432.013 477.954 432.172 477.78 432.365 477.641C432.559 477.497 432.775 477.39 433.015 477.318C433.255 477.243 433.508 477.206 433.773 477.206ZM440.519 477.206C441.217 477.206 441.745 477.377 442.103 477.721C442.461 478.061 442.64 478.609 442.64 479.365V483.2H441.76V479.424C441.76 478.933 441.647 478.566 441.421 478.323C441.199 478.079 440.857 477.958 440.395 477.958C439.744 477.958 439.285 478.142 439.02 478.511C438.755 478.88 438.623 479.415 438.623 480.117V483.2H437.731V477.313H438.451L438.585 478.162H438.634C438.759 477.954 438.918 477.78 439.112 477.641C439.305 477.497 439.522 477.39 439.761 477.318C440.001 477.243 440.254 477.206 440.519 477.206ZM446.679 477.216C447.381 477.216 447.902 477.374 448.242 477.689C448.583 478.004 448.753 478.507 448.753 479.198V483.2H448.103L447.931 482.33H447.888C447.723 482.544 447.551 482.725 447.372 482.872C447.193 483.015 446.986 483.125 446.749 483.2C446.517 483.271 446.23 483.307 445.89 483.307C445.532 483.307 445.213 483.244 444.934 483.119C444.658 482.994 444.44 482.804 444.279 482.55C444.121 482.296 444.042 481.973 444.042 481.583C444.042 480.996 444.275 480.545 444.74 480.229C445.206 479.914 445.915 479.743 446.867 479.714L447.883 479.671V479.311C447.883 478.803 447.773 478.446 447.555 478.242C447.337 478.038 447.029 477.936 446.631 477.936C446.323 477.936 446.03 477.981 445.75 478.07C445.471 478.16 445.206 478.265 444.955 478.387L444.681 477.71C444.946 477.574 445.251 477.458 445.594 477.361C445.938 477.265 446.3 477.216 446.679 477.216ZM447.872 480.299L446.975 480.337C446.241 480.366 445.723 480.486 445.423 480.697C445.122 480.908 444.971 481.207 444.971 481.594C444.971 481.93 445.073 482.179 445.278 482.34C445.482 482.501 445.752 482.582 446.089 482.582C446.611 482.582 447.039 482.437 447.372 482.147C447.705 481.857 447.872 481.422 447.872 480.842V480.299ZM451.481 477.313V483.2H450.59V477.313H451.481ZM451.046 475.111C451.193 475.111 451.318 475.159 451.422 475.256C451.53 475.349 451.583 475.496 451.583 475.696C451.583 475.893 451.53 476.04 451.422 476.137C451.318 476.233 451.193 476.282 451.046 476.282C450.892 476.282 450.763 476.233 450.659 476.137C450.559 476.04 450.509 475.893 450.509 475.696C450.509 475.496 450.559 475.349 450.659 475.256C450.763 475.159 450.892 475.111 451.046 475.111Z" fill="white"/>
<path d="M325.059 243.04H324.006L319.725 236.444H319.682C319.693 236.62 319.706 236.82 319.72 237.046C319.734 237.268 319.745 237.506 319.752 237.76C319.763 238.011 319.768 238.267 319.768 238.528V243.04H318.92V235.188H319.967L324.232 241.762H324.269C324.262 241.636 324.253 241.459 324.242 241.23C324.232 240.997 324.221 240.748 324.21 240.483C324.203 240.215 324.199 239.966 324.199 239.737V235.188H325.059V243.04ZM329.334 237.046C329.836 237.046 330.265 237.157 330.623 237.379C330.981 237.601 331.255 237.912 331.445 238.313C331.635 238.711 331.73 239.176 331.73 239.71V240.263H327.664C327.675 240.954 327.846 241.481 328.179 241.842C328.512 242.204 328.982 242.385 329.587 242.385C329.959 242.385 330.288 242.351 330.575 242.283C330.861 242.215 331.159 242.114 331.467 241.982V242.766C331.169 242.899 330.874 242.995 330.58 243.056C330.29 243.117 329.947 243.147 329.549 243.147C328.983 243.147 328.489 243.033 328.067 242.804C327.648 242.571 327.322 242.231 327.089 241.783C326.856 241.336 326.74 240.788 326.74 240.14C326.74 239.506 326.846 238.958 327.057 238.496C327.272 238.031 327.573 237.673 327.959 237.422C328.35 237.171 328.808 237.046 329.334 237.046ZM329.323 237.776C328.847 237.776 328.468 237.932 328.185 238.244C327.902 238.555 327.734 238.99 327.68 239.549H330.795C330.792 239.198 330.736 238.89 330.629 238.625C330.525 238.356 330.365 238.149 330.151 238.002C329.936 237.852 329.66 237.776 329.323 237.776ZM338.035 243.029L336.988 239.603C336.941 239.456 336.897 239.313 336.854 239.173C336.814 239.03 336.777 238.894 336.741 238.765C336.709 238.632 336.678 238.51 336.65 238.399C336.625 238.285 336.603 238.186 336.585 238.104H336.548C336.533 238.186 336.514 238.285 336.489 238.399C336.463 238.51 336.433 238.632 336.397 238.765C336.365 238.897 336.329 239.037 336.29 239.184C336.25 239.327 336.206 239.472 336.156 239.619L335.06 243.029H334.055L332.433 237.143H333.357L334.206 240.392C334.263 240.607 334.317 240.82 334.367 241.031C334.421 241.239 334.465 241.436 334.501 241.622C334.541 241.805 334.569 241.964 334.587 242.1H334.63C334.652 242.011 334.675 241.903 334.7 241.778C334.729 241.653 334.759 241.52 334.791 241.38C334.827 241.237 334.865 241.096 334.904 240.956C334.943 240.813 334.983 240.679 335.022 240.553L336.107 237.143H337.069L338.116 240.548C338.17 240.72 338.222 240.899 338.272 241.085C338.325 241.271 338.374 241.452 338.417 241.627C338.46 241.799 338.49 241.953 338.508 242.089H338.551C338.565 241.968 338.592 241.817 338.632 241.638C338.671 241.459 338.716 241.262 338.766 241.047C338.82 240.833 338.875 240.614 338.932 240.392L339.792 237.143H340.699L339.072 243.029H338.035ZM351.001 239.039C351.001 239.923 350.84 240.662 350.518 241.257C350.196 241.848 349.728 242.293 349.116 242.594C348.507 242.891 347.768 243.04 346.898 243.04H344.765V235.188H347.134C347.933 235.188 348.62 235.334 349.197 235.628C349.773 235.918 350.217 236.349 350.529 236.922C350.844 237.492 351.001 238.197 351.001 239.039ZM350.04 239.071C350.04 238.365 349.922 237.784 349.685 237.325C349.453 236.867 349.109 236.527 348.654 236.305C348.203 236.079 347.65 235.966 346.994 235.966H345.678V242.256H346.79C347.872 242.256 348.683 241.989 349.223 241.456C349.768 240.922 350.04 240.127 350.04 239.071ZM354.879 237.046C355.38 237.046 355.81 237.157 356.168 237.379C356.526 237.601 356.8 237.912 356.99 238.313C357.18 238.711 357.275 239.176 357.275 239.71V240.263H353.209C353.219 240.954 353.391 241.481 353.724 241.842C354.057 242.204 354.526 242.385 355.132 242.385C355.504 242.385 355.833 242.351 356.12 242.283C356.406 242.215 356.704 242.114 357.011 241.982V242.766C356.714 242.899 356.419 242.995 356.125 243.056C355.835 243.117 355.491 243.147 355.094 243.147C354.528 243.147 354.034 243.033 353.612 242.804C353.193 242.571 352.867 242.231 352.634 241.783C352.401 241.336 352.285 240.788 352.285 240.14C352.285 239.506 352.391 238.958 352.602 238.496C352.817 238.031 353.117 237.673 353.504 237.422C353.894 237.171 354.353 237.046 354.879 237.046ZM354.868 237.776C354.392 237.776 354.013 237.932 353.73 238.244C353.447 238.555 353.279 238.99 353.225 239.549H356.34C356.337 239.198 356.281 238.89 356.174 238.625C356.07 238.356 355.91 238.149 355.696 238.002C355.481 237.852 355.205 237.776 354.868 237.776ZM359.686 243.04H358.789V234.683H359.686V243.04ZM362.463 234.683V237.18C362.463 237.323 362.46 237.468 362.452 237.615C362.445 237.758 362.433 237.891 362.415 238.013H362.474C362.596 237.805 362.75 237.631 362.936 237.492C363.126 237.348 363.34 237.241 363.58 237.169C363.82 237.094 364.074 237.057 364.343 237.057C364.816 237.057 365.21 237.132 365.525 237.282C365.843 237.433 366.081 237.665 366.239 237.98C366.4 238.296 366.481 238.704 366.481 239.205V243.04H365.6V239.264C365.6 238.774 365.487 238.407 365.261 238.163C365.039 237.92 364.698 237.798 364.236 237.798C363.799 237.798 363.45 237.882 363.188 238.05C362.93 238.215 362.744 238.458 362.63 238.781C362.519 239.103 362.463 239.497 362.463 239.962V243.04H361.572V234.683H362.463ZM369.209 237.153V243.04H368.318V237.153H369.209ZM368.774 234.951C368.921 234.951 369.046 235 369.15 235.096C369.258 235.189 369.311 235.336 369.311 235.537C369.311 235.734 369.258 235.88 369.15 235.977C369.046 236.074 368.921 236.122 368.774 236.122C368.62 236.122 368.491 236.074 368.387 235.977C368.287 235.88 368.237 235.734 368.237 235.537C368.237 235.336 368.287 235.189 368.387 235.096C368.491 235 368.62 234.951 368.774 234.951Z" fill="white"/>
<rect x="373.952" y="236.644" width="3.792" height="3.79199" fill="white"/>
</g>
<defs>
<clipPath id="clip0_232_2585">
<rect width="700" height="550" fill="white"/>
</clipPath>
</defs>
</svg>
